# xmcd
#
# Track frame offsets:
#	150
#	19703
#	37197
#	56804
#	73360
#	88741
#	102108
#	117601
#	142973
#	154175
#	168864
#
# Disc length: 2429 seconds
#
# Revision: 0
# Processed by: cddbd v1.4PL0 Copyright (c) Steve Scherf et al.
# Submitted via: dBpowerAMP V4.0
#
DISCID=9b097b0b
DTITLE=Sawmill Creek - Barely Gettin' By
DYEAR=1980
DGENRE=Country
TTITLE0=Barely Gettin' By
TTITLE1=Things Could Never Be Right
TTITLE2=Old Tree
TTITLE3=Hole In My Life
TTITLE4=Dancin'
TTITLE5=Sure, Woody
TTITLE6=Just Because It's So
TTITLE7=Echo Of An Old Man's Last Ride
TTITLE8=Dear John Call
TTITLE9=Have I Gone Very Far
TTITLE10=Friends
EXTD=
EXTT0=
EXTT1=
EXTT2=
EXTT3=
EXTT4=
EXTT5=
EXTT6=
EXTT7=
EXTT8=
EXTT9=
EXTT10=
PLAYORDER=
